<mxfile host="app.diagrams.net" modified="2024-03-24T09:44:43.020Z" agent="Mozilla/5.0 (Macintosh; Intel Mac OS X 10_15_7) AppleWebKit/537.36 (KHTML, like Gecko) Chrome/122.0.0.0 Safari/537.36" etag="uLmxelC-CfZqtb6gzqwW" version="23.1.5" type="google">
  <diagram name="Page-1" id="5f0bae14-7c28-e335-631c-24af17079c00">
    <mxGraphModel grid="1" page="1" gridSize="10" guides="1" tooltips="1" connect="1" arrows="1" fold="1" pageScale="1" pageWidth="1100" pageHeight="850" background="none" math="0" shadow="0">
      <root>
        <mxCell id="0" />
        <mxCell id="1" parent="0" />
        <mxCell id="xAPzOj5iwJdq9N1utbDK-81" value="" style="edgeStyle=orthogonalEdgeStyle;rounded=0;orthogonalLoop=1;jettySize=auto;html=1;entryX=0;entryY=0.5;entryDx=0;entryDy=0;" edge="1" parent="1" source="xAPzOj5iwJdq9N1utbDK-1" target="xAPzOj5iwJdq9N1utbDK-64">
          <mxGeometry relative="1" as="geometry">
            <mxPoint x="250" y="145" as="targetPoint" />
          </mxGeometry>
        </mxCell>
        <mxCell id="xAPzOj5iwJdq9N1utbDK-1" value="&lt;font style=&quot;font-size: 24px;&quot;&gt;Client&lt;/font&gt;" style="ellipse;whiteSpace=wrap;html=1;" vertex="1" parent="1">
          <mxGeometry x="30" y="105" width="120" height="80" as="geometry" />
        </mxCell>
        <mxCell id="xAPzOj5iwJdq9N1utbDK-64" value="&lt;font style=&quot;font-size: 20px;&quot;&gt;&amp;nbsp; &amp;nbsp; Gateway&lt;/font&gt;" style="rounded=1;whiteSpace=wrap;html=1;align=left;verticalAlign=top;" vertex="1" parent="1">
          <mxGeometry x="270" y="25" width="760" height="240" as="geometry" />
        </mxCell>
        <mxCell id="xAPzOj5iwJdq9N1utbDK-82" value="&lt;font style=&quot;font-size: 16px;&quot;&gt;&amp;nbsp;GatewayHandlerInterface&lt;br&gt;&lt;/font&gt;" style="rounded=1;whiteSpace=wrap;html=1;align=left;verticalAlign=top;" vertex="1" parent="1">
          <mxGeometry x="720" y="55" width="290" height="180" as="geometry" />
        </mxCell>
        <mxCell id="xAPzOj5iwJdq9N1utbDK-94" style="edgeStyle=orthogonalEdgeStyle;rounded=0;orthogonalLoop=1;jettySize=auto;html=1;exitX=0.25;exitY=1;exitDx=0;exitDy=0;entryX=0.75;entryY=0;entryDx=0;entryDy=0;" edge="1" parent="1" source="xAPzOj5iwJdq9N1utbDK-83" target="xAPzOj5iwJdq9N1utbDK-92">
          <mxGeometry relative="1" as="geometry">
            <Array as="points">
              <mxPoint x="825" y="295" />
              <mxPoint x="398" y="295" />
            </Array>
          </mxGeometry>
        </mxCell>
        <mxCell id="xAPzOj5iwJdq9N1utbDK-83" value="&lt;font style=&quot;font-size: 16px;&quot;&gt;POST /callback&lt;br&gt;&lt;br&gt;&lt;/font&gt;" style="rounded=1;whiteSpace=wrap;html=1;align=left;verticalAlign=top;" vertex="1" parent="1">
          <mxGeometry x="820" y="169" width="140" height="40" as="geometry" />
        </mxCell>
        <mxCell id="xAPzOj5iwJdq9N1utbDK-84" style="edgeStyle=orthogonalEdgeStyle;rounded=0;orthogonalLoop=1;jettySize=auto;html=1;exitX=0.5;exitY=1;exitDx=0;exitDy=0;" edge="1" parent="1">
          <mxGeometry relative="1" as="geometry">
            <mxPoint x="890" y="95" as="sourcePoint" />
            <mxPoint x="890" y="95" as="targetPoint" />
          </mxGeometry>
        </mxCell>
        <mxCell id="xAPzOj5iwJdq9N1utbDK-85" style="edgeStyle=orthogonalEdgeStyle;rounded=0;orthogonalLoop=1;jettySize=auto;html=1;exitX=1;exitY=0;exitDx=0;exitDy=0;" edge="1" parent="1" source="xAPzOj5iwJdq9N1utbDK-87" target="xAPzOj5iwJdq9N1utbDK-89">
          <mxGeometry relative="1" as="geometry" />
        </mxCell>
        <mxCell id="xAPzOj5iwJdq9N1utbDK-86" style="edgeStyle=orthogonalEdgeStyle;rounded=0;orthogonalLoop=1;jettySize=auto;html=1;exitX=1;exitY=1;exitDx=0;exitDy=0;entryX=0;entryY=0.75;entryDx=0;entryDy=0;" edge="1" parent="1" source="xAPzOj5iwJdq9N1utbDK-87" target="xAPzOj5iwJdq9N1utbDK-82">
          <mxGeometry relative="1" as="geometry" />
        </mxCell>
        <mxCell id="xAPzOj5iwJdq9N1utbDK-87" value="&lt;font style=&quot;font-size: 22px;&quot;&gt;Authorisation required?&lt;/font&gt;" style="rhombus;whiteSpace=wrap;html=1;" vertex="1" parent="1">
          <mxGeometry x="320" y="65" width="170" height="160" as="geometry" />
        </mxCell>
        <mxCell id="xAPzOj5iwJdq9N1utbDK-88" style="edgeStyle=orthogonalEdgeStyle;rounded=0;orthogonalLoop=1;jettySize=auto;html=1;exitX=1;exitY=0.5;exitDx=0;exitDy=0;entryX=0;entryY=0.25;entryDx=0;entryDy=0;" edge="1" parent="1" source="xAPzOj5iwJdq9N1utbDK-89" target="xAPzOj5iwJdq9N1utbDK-82">
          <mxGeometry relative="1" as="geometry" />
        </mxCell>
        <mxCell id="xAPzOj5iwJdq9N1utbDK-89" value="&lt;font style=&quot;font-size: 18px;&quot;&gt;Find player by token&lt;/font&gt;" style="rounded=1;whiteSpace=wrap;html=1;" vertex="1" parent="1">
          <mxGeometry x="540" y="45" width="120" height="60" as="geometry" />
        </mxCell>
        <mxCell id="xAPzOj5iwJdq9N1utbDK-125" style="edgeStyle=orthogonalEdgeStyle;rounded=0;orthogonalLoop=1;jettySize=auto;html=1;exitX=1;exitY=1;exitDx=0;exitDy=0;entryX=0.75;entryY=0;entryDx=0;entryDy=0;" edge="1" parent="1" source="xAPzOj5iwJdq9N1utbDK-90" target="xAPzOj5iwJdq9N1utbDK-124">
          <mxGeometry relative="1" as="geometry">
            <Array as="points">
              <mxPoint x="980" y="145" />
              <mxPoint x="980" y="250" />
              <mxPoint x="945" y="250" />
            </Array>
          </mxGeometry>
        </mxCell>
        <mxCell id="xAPzOj5iwJdq9N1utbDK-90" value="&lt;font style=&quot;font-size: 16px;&quot;&gt;POST /payment&lt;br&gt;&lt;/font&gt;" style="rounded=1;whiteSpace=wrap;html=1;align=left;verticalAlign=top;" vertex="1" parent="1">
          <mxGeometry x="820" y="105" width="140" height="40" as="geometry" />
        </mxCell>
        <mxCell id="xAPzOj5iwJdq9N1utbDK-92" value="&lt;font style=&quot;font-size: 15px;&quot;&gt;&amp;nbsp; &amp;nbsp; &amp;nbsp; POST /callback&lt;/font&gt;" style="rounded=1;whiteSpace=wrap;html=1;align=left;verticalAlign=top;" vertex="1" parent="1">
          <mxGeometry x="30" y="355" width="490" height="320" as="geometry" />
        </mxCell>
        <mxCell id="xAPzOj5iwJdq9N1utbDK-106" style="edgeStyle=orthogonalEdgeStyle;rounded=0;orthogonalLoop=1;jettySize=auto;html=1;exitX=0.5;exitY=1;exitDx=0;exitDy=0;" edge="1" parent="1" source="xAPzOj5iwJdq9N1utbDK-95" target="xAPzOj5iwJdq9N1utbDK-104">
          <mxGeometry relative="1" as="geometry" />
        </mxCell>
        <mxCell id="xAPzOj5iwJdq9N1utbDK-109" style="edgeStyle=orthogonalEdgeStyle;rounded=0;orthogonalLoop=1;jettySize=auto;html=1;exitX=1;exitY=0.5;exitDx=0;exitDy=0;entryX=0;entryY=0.5;entryDx=0;entryDy=0;" edge="1" parent="1" source="xAPzOj5iwJdq9N1utbDK-95" target="xAPzOj5iwJdq9N1utbDK-103">
          <mxGeometry relative="1" as="geometry" />
        </mxCell>
        <mxCell id="xAPzOj5iwJdq9N1utbDK-95" value="&lt;font style=&quot;font-size: 17px;&quot;&gt;transaction status?&lt;/font&gt;" style="rhombus;whiteSpace=wrap;html=1;" vertex="1" parent="1">
          <mxGeometry x="53" y="382.5" width="130" height="110" as="geometry" />
        </mxCell>
        <mxCell id="xAPzOj5iwJdq9N1utbDK-99" value="YES" style="text;strokeColor=none;fillColor=none;align=left;verticalAlign=middle;spacingTop=-1;spacingLeft=4;spacingRight=4;rotatable=0;labelPosition=right;points=[];portConstraint=eastwest;" vertex="1" parent="1">
          <mxGeometry x="440" y="88" width="20" height="14" as="geometry" />
        </mxCell>
        <mxCell id="xAPzOj5iwJdq9N1utbDK-102" value="NO" style="text;strokeColor=none;fillColor=none;align=left;verticalAlign=middle;spacingTop=-1;spacingLeft=4;spacingRight=4;rotatable=0;labelPosition=right;points=[];portConstraint=eastwest;" vertex="1" parent="1">
          <mxGeometry x="450" y="195" width="20" height="14" as="geometry" />
        </mxCell>
        <mxCell id="xAPzOj5iwJdq9N1utbDK-111" style="edgeStyle=orthogonalEdgeStyle;rounded=0;orthogonalLoop=1;jettySize=auto;html=1;exitX=1;exitY=0.5;exitDx=0;exitDy=0;entryX=0;entryY=0.5;entryDx=0;entryDy=0;" edge="1" parent="1" source="xAPzOj5iwJdq9N1utbDK-103" target="xAPzOj5iwJdq9N1utbDK-110">
          <mxGeometry relative="1" as="geometry" />
        </mxCell>
        <mxCell id="xAPzOj5iwJdq9N1utbDK-103" value="CANCEL TRANSACTION" style="rounded=1;whiteSpace=wrap;html=1;" vertex="1" parent="1">
          <mxGeometry x="240" y="400" width="100" height="45" as="geometry" />
        </mxCell>
        <mxCell id="xAPzOj5iwJdq9N1utbDK-107" style="edgeStyle=orthogonalEdgeStyle;rounded=0;orthogonalLoop=1;jettySize=auto;html=1;exitX=0.5;exitY=1;exitDx=0;exitDy=0;entryX=0.5;entryY=0;entryDx=0;entryDy=0;" edge="1" parent="1" source="xAPzOj5iwJdq9N1utbDK-104" target="xAPzOj5iwJdq9N1utbDK-105">
          <mxGeometry relative="1" as="geometry" />
        </mxCell>
        <mxCell id="xAPzOj5iwJdq9N1utbDK-104" value="FLUSH&amp;nbsp; &lt;br&gt;TRANSACTION" style="rounded=1;whiteSpace=wrap;html=1;" vertex="1" parent="1">
          <mxGeometry x="68" y="525" width="100" height="45" as="geometry" />
        </mxCell>
        <mxCell id="xAPzOj5iwJdq9N1utbDK-115" style="edgeStyle=orthogonalEdgeStyle;rounded=0;orthogonalLoop=1;jettySize=auto;html=1;exitX=1;exitY=0.5;exitDx=0;exitDy=0;entryX=0;entryY=0.5;entryDx=0;entryDy=0;" edge="1" parent="1" source="xAPzOj5iwJdq9N1utbDK-105" target="xAPzOj5iwJdq9N1utbDK-108">
          <mxGeometry relative="1" as="geometry" />
        </mxCell>
        <mxCell id="xAPzOj5iwJdq9N1utbDK-105" value="IF CASCADE - MARK CASCADE AS SUCCES" style="rounded=1;whiteSpace=wrap;html=1;" vertex="1" parent="1">
          <mxGeometry x="66" y="595" width="104" height="60" as="geometry" />
        </mxCell>
        <mxCell id="xAPzOj5iwJdq9N1utbDK-108" value="&lt;font style=&quot;font-size: 20px;&quot;&gt;Payment cycle finished&lt;/font&gt;" style="ellipse;whiteSpace=wrap;html=1;" vertex="1" parent="1">
          <mxGeometry x="380" y="745" width="240" height="80" as="geometry" />
        </mxCell>
        <mxCell id="xAPzOj5iwJdq9N1utbDK-114" style="edgeStyle=orthogonalEdgeStyle;rounded=0;orthogonalLoop=1;jettySize=auto;html=1;exitX=0.5;exitY=1;exitDx=0;exitDy=0;entryX=0.5;entryY=0;entryDx=0;entryDy=0;" edge="1" parent="1" source="xAPzOj5iwJdq9N1utbDK-110" target="xAPzOj5iwJdq9N1utbDK-113">
          <mxGeometry relative="1" as="geometry" />
        </mxCell>
        <mxCell id="xAPzOj5iwJdq9N1utbDK-116" style="edgeStyle=orthogonalEdgeStyle;rounded=0;orthogonalLoop=1;jettySize=auto;html=1;exitX=0;exitY=1;exitDx=0;exitDy=0;entryX=0;entryY=0;entryDx=0;entryDy=0;" edge="1" parent="1" source="xAPzOj5iwJdq9N1utbDK-110" target="xAPzOj5iwJdq9N1utbDK-108">
          <mxGeometry relative="1" as="geometry">
            <Array as="points">
              <mxPoint x="330" y="461" />
              <mxPoint x="330" y="757" />
            </Array>
          </mxGeometry>
        </mxCell>
        <mxCell id="xAPzOj5iwJdq9N1utbDK-110" value="IS CASCADE?" style="rhombus;whiteSpace=wrap;html=1;" vertex="1" parent="1">
          <mxGeometry x="380" y="390" width="120" height="95" as="geometry" />
        </mxCell>
        <mxCell id="xAPzOj5iwJdq9N1utbDK-113" value="SEND MESSAGE TO RABBIT" style="ellipse;whiteSpace=wrap;html=1;aspect=fixed;" vertex="1" parent="1">
          <mxGeometry x="386.25" y="525" width="107.5" height="107.5" as="geometry" />
        </mxCell>
        <mxCell id="xAPzOj5iwJdq9N1utbDK-117" value="CANCEL" style="text;strokeColor=none;fillColor=none;align=left;verticalAlign=middle;spacingTop=-1;spacingLeft=4;spacingRight=4;rotatable=0;labelPosition=right;points=[];portConstraint=eastwest;" vertex="1" parent="1">
          <mxGeometry x="150" y="400" width="20" height="14" as="geometry" />
        </mxCell>
        <mxCell id="xAPzOj5iwJdq9N1utbDK-118" value="DONE" style="text;strokeColor=none;fillColor=none;align=left;verticalAlign=middle;spacingTop=-1;spacingLeft=4;spacingRight=4;rotatable=0;labelPosition=right;points=[];portConstraint=eastwest;" vertex="1" parent="1">
          <mxGeometry x="48" y="485" width="20" height="14" as="geometry" />
        </mxCell>
        <mxCell id="xAPzOj5iwJdq9N1utbDK-122" value="YES" style="text;strokeColor=none;fillColor=none;align=left;verticalAlign=middle;spacingTop=-1;spacingLeft=4;spacingRight=4;rotatable=0;labelPosition=right;points=[];portConstraint=eastwest;" vertex="1" parent="1">
          <mxGeometry x="386.25" y="508" width="20" height="14" as="geometry" />
        </mxCell>
        <mxCell id="xAPzOj5iwJdq9N1utbDK-123" value="NO" style="text;strokeColor=none;fillColor=none;align=left;verticalAlign=middle;spacingTop=-1;spacingLeft=4;spacingRight=4;rotatable=0;labelPosition=right;points=[];portConstraint=eastwest;" vertex="1" parent="1">
          <mxGeometry x="360" y="465" width="20" height="14" as="geometry" />
        </mxCell>
        <mxCell id="xAPzOj5iwJdq9N1utbDK-124" value="&lt;font style=&quot;font-size: 17px;&quot;&gt;&amp;nbsp; &amp;nbsp; &amp;nbsp;&lt;/font&gt;&lt;font style=&quot;font-size: 16px;&quot;&gt;POST /payment&lt;/font&gt;" style="rounded=1;whiteSpace=wrap;html=1;align=left;verticalAlign=top;" vertex="1" parent="1">
          <mxGeometry x="570" y="355" width="500" height="310" as="geometry" />
        </mxCell>
        <mxCell id="xAPzOj5iwJdq9N1utbDK-126" value="&lt;font style=&quot;font-size: 18px;&quot;&gt;Prepare Transaction&lt;/font&gt;" style="rounded=1;whiteSpace=wrap;html=1;" vertex="1" parent="1">
          <mxGeometry x="580" y="392.5" width="120" height="60" as="geometry" />
        </mxCell>
        <mxCell id="xAPzOj5iwJdq9N1utbDK-130" style="edgeStyle=orthogonalEdgeStyle;rounded=0;orthogonalLoop=1;jettySize=auto;html=1;exitX=0.25;exitY=1;exitDx=0;exitDy=0;entryX=0.25;entryY=0;entryDx=0;entryDy=0;" edge="1" parent="1" source="xAPzOj5iwJdq9N1utbDK-127" target="xAPzOj5iwJdq9N1utbDK-129">
          <mxGeometry relative="1" as="geometry" />
        </mxCell>
        <mxCell id="xAPzOj5iwJdq9N1utbDK-133" style="edgeStyle=orthogonalEdgeStyle;rounded=0;orthogonalLoop=1;jettySize=auto;html=1;exitX=1;exitY=0.5;exitDx=0;exitDy=0;entryX=0;entryY=0.5;entryDx=0;entryDy=0;" edge="1" parent="1" source="xAPzOj5iwJdq9N1utbDK-127" target="xAPzOj5iwJdq9N1utbDK-128">
          <mxGeometry relative="1" as="geometry" />
        </mxCell>
        <mxCell id="xAPzOj5iwJdq9N1utbDK-127" value="&lt;font style=&quot;font-size: 16px;&quot;&gt;Process Transaction&lt;br&gt;(request payment)&lt;br&gt;&lt;/font&gt;" style="rounded=1;whiteSpace=wrap;html=1;" vertex="1" parent="1">
          <mxGeometry x="740" y="370" width="130" height="80" as="geometry" />
        </mxCell>
        <mxCell id="xAPzOj5iwJdq9N1utbDK-135" style="edgeStyle=orthogonalEdgeStyle;rounded=0;orthogonalLoop=1;jettySize=auto;html=1;exitX=0.5;exitY=1;exitDx=0;exitDy=0;entryX=0.5;entryY=0;entryDx=0;entryDy=0;" edge="1" parent="1" source="xAPzOj5iwJdq9N1utbDK-128" target="xAPzOj5iwJdq9N1utbDK-134">
          <mxGeometry relative="1" as="geometry" />
        </mxCell>
        <mxCell id="xAPzOj5iwJdq9N1utbDK-138" style="edgeStyle=orthogonalEdgeStyle;rounded=0;orthogonalLoop=1;jettySize=auto;html=1;exitX=0;exitY=1;exitDx=0;exitDy=0;" edge="1" parent="1" source="xAPzOj5iwJdq9N1utbDK-128" target="xAPzOj5iwJdq9N1utbDK-137">
          <mxGeometry relative="1" as="geometry">
            <Array as="points">
              <mxPoint x="938" y="495" />
              <mxPoint x="810" y="495" />
            </Array>
          </mxGeometry>
        </mxCell>
        <mxCell id="xAPzOj5iwJdq9N1utbDK-128" value="IS CASCADE?" style="rhombus;whiteSpace=wrap;html=1;" vertex="1" parent="1">
          <mxGeometry x="910" y="382.5" width="110" height="92.5" as="geometry" />
        </mxCell>
        <mxCell id="xAPzOj5iwJdq9N1utbDK-131" style="edgeStyle=orthogonalEdgeStyle;rounded=0;orthogonalLoop=1;jettySize=auto;html=1;exitX=0.25;exitY=1;exitDx=0;exitDy=0;" edge="1" parent="1" source="xAPzOj5iwJdq9N1utbDK-129" target="xAPzOj5iwJdq9N1utbDK-108">
          <mxGeometry relative="1" as="geometry" />
        </mxCell>
        <mxCell id="xAPzOj5iwJdq9N1utbDK-129" value="CANCEL TRANSCTION" style="rounded=1;whiteSpace=wrap;html=1;" vertex="1" parent="1">
          <mxGeometry x="580" y="535" width="120" height="60" as="geometry" />
        </mxCell>
        <mxCell id="xAPzOj5iwJdq9N1utbDK-132" value="ERROR" style="text;strokeColor=none;fillColor=none;align=left;verticalAlign=middle;spacingTop=-1;spacingLeft=4;spacingRight=4;rotatable=0;labelPosition=right;points=[];portConstraint=eastwest;" vertex="1" parent="1">
          <mxGeometry x="650" y="475" width="20" height="14" as="geometry" />
        </mxCell>
        <mxCell id="xAPzOj5iwJdq9N1utbDK-134" value="SEND MESSAGE TO RABBIT" style="ellipse;whiteSpace=wrap;html=1;aspect=fixed;" vertex="1" parent="1">
          <mxGeometry x="922.5" y="511.25" width="107.5" height="107.5" as="geometry" />
        </mxCell>
        <mxCell id="xAPzOj5iwJdq9N1utbDK-136" value="YES" style="text;strokeColor=none;fillColor=none;align=left;verticalAlign=middle;spacingTop=-1;spacingLeft=4;spacingRight=4;rotatable=0;labelPosition=right;points=[];portConstraint=eastwest;" vertex="1" parent="1">
          <mxGeometry x="990" y="485" width="20" height="14" as="geometry" />
        </mxCell>
        <mxCell id="xAPzOj5iwJdq9N1utbDK-137" value="WAIT CALLBACK" style="rounded=1;whiteSpace=wrap;html=1;" vertex="1" parent="1">
          <mxGeometry x="750" y="535" width="120" height="60" as="geometry" />
        </mxCell>
        <mxCell id="xAPzOj5iwJdq9N1utbDK-139" value="NO" style="text;strokeColor=none;fillColor=none;align=left;verticalAlign=middle;spacingTop=-1;spacingLeft=4;spacingRight=4;rotatable=0;labelPosition=right;points=[];portConstraint=eastwest;" vertex="1" parent="1">
          <mxGeometry x="830" y="471" width="20" height="14" as="geometry" />
        </mxCell>
        <mxCell id="xAPzOj5iwJdq9N1utbDK-147" style="edgeStyle=orthogonalEdgeStyle;rounded=0;orthogonalLoop=1;jettySize=auto;html=1;exitX=1;exitY=0.5;exitDx=0;exitDy=0;entryX=0;entryY=0.25;entryDx=0;entryDy=0;" edge="1" parent="1" source="xAPzOj5iwJdq9N1utbDK-142" target="xAPzOj5iwJdq9N1utbDK-143">
          <mxGeometry relative="1" as="geometry" />
        </mxCell>
        <mxCell id="xAPzOj5iwJdq9N1utbDK-142" value="GET MESSAGE FROM RABBIT" style="ellipse;whiteSpace=wrap;html=1;aspect=fixed;" vertex="1" parent="1">
          <mxGeometry x="20" y="890" width="107.5" height="107.5" as="geometry" />
        </mxCell>
        <mxCell id="xAPzOj5iwJdq9N1utbDK-143" value="&lt;span style=&quot;font-size: 18px;&quot;&gt;&amp;nbsp; &amp;nbsp; &amp;nbsp;Payment Cascade&lt;/span&gt;" style="rounded=1;whiteSpace=wrap;html=1;align=left;verticalAlign=top;fontSize=20;" vertex="1" parent="1">
          <mxGeometry x="200" y="880" width="490" height="340" as="geometry" />
        </mxCell>
        <mxCell id="xAPzOj5iwJdq9N1utbDK-146" style="edgeStyle=orthogonalEdgeStyle;rounded=0;orthogonalLoop=1;jettySize=auto;html=1;exitX=0.25;exitY=1;exitDx=0;exitDy=0;entryX=0.25;entryY=0;entryDx=0;entryDy=0;" edge="1" parent="1" source="xAPzOj5iwJdq9N1utbDK-144" target="xAPzOj5iwJdq9N1utbDK-145">
          <mxGeometry relative="1" as="geometry" />
        </mxCell>
        <mxCell id="xAPzOj5iwJdq9N1utbDK-150" style="edgeStyle=orthogonalEdgeStyle;rounded=0;orthogonalLoop=1;jettySize=auto;html=1;exitX=1;exitY=0.5;exitDx=0;exitDy=0;entryX=0;entryY=0.5;entryDx=0;entryDy=0;" edge="1" parent="1" source="xAPzOj5iwJdq9N1utbDK-144" target="xAPzOj5iwJdq9N1utbDK-148">
          <mxGeometry relative="1" as="geometry" />
        </mxCell>
        <mxCell id="xAPzOj5iwJdq9N1utbDK-144" value="&lt;font style=&quot;font-size: 16px;&quot;&gt;Get uniq (not used) provider&lt;/font&gt;" style="rounded=1;whiteSpace=wrap;html=1;" vertex="1" parent="1">
          <mxGeometry x="230" y="920" width="140" height="70" as="geometry" />
        </mxCell>
        <mxCell id="xAPzOj5iwJdq9N1utbDK-156" style="edgeStyle=orthogonalEdgeStyle;rounded=0;orthogonalLoop=1;jettySize=auto;html=1;exitX=1;exitY=0.5;exitDx=0;exitDy=0;entryX=0;entryY=0.5;entryDx=0;entryDy=0;" edge="1" parent="1" source="xAPzOj5iwJdq9N1utbDK-145" target="xAPzOj5iwJdq9N1utbDK-155">
          <mxGeometry relative="1" as="geometry" />
        </mxCell>
        <mxCell id="xAPzOj5iwJdq9N1utbDK-145" value="CANCEL TRANSACTION" style="rounded=1;whiteSpace=wrap;html=1;" vertex="1" parent="1">
          <mxGeometry x="233" y="1110" width="134" height="80" as="geometry" />
        </mxCell>
        <mxCell id="xAPzOj5iwJdq9N1utbDK-149" style="edgeStyle=orthogonalEdgeStyle;rounded=0;orthogonalLoop=1;jettySize=auto;html=1;exitX=0.5;exitY=1;exitDx=0;exitDy=0;entryX=0.5;entryY=1;entryDx=0;entryDy=0;" edge="1" parent="1" source="xAPzOj5iwJdq9N1utbDK-148" target="xAPzOj5iwJdq9N1utbDK-144">
          <mxGeometry relative="1" as="geometry" />
        </mxCell>
        <mxCell id="xAPzOj5iwJdq9N1utbDK-158" style="edgeStyle=orthogonalEdgeStyle;rounded=0;orthogonalLoop=1;jettySize=auto;html=1;exitX=1;exitY=1;exitDx=0;exitDy=0;entryX=0.75;entryY=0;entryDx=0;entryDy=0;" edge="1" parent="1" source="xAPzOj5iwJdq9N1utbDK-148" target="xAPzOj5iwJdq9N1utbDK-157">
          <mxGeometry relative="1" as="geometry" />
        </mxCell>
        <mxCell id="xAPzOj5iwJdq9N1utbDK-148" value="&lt;font style=&quot;font-size: 16px;&quot;&gt;CREATE TRANSACTION AND REQUEST&lt;br&gt;&amp;nbsp;PAYMENT&lt;/font&gt;" style="rounded=1;whiteSpace=wrap;html=1;" vertex="1" parent="1">
          <mxGeometry x="500" y="910" width="160" height="75" as="geometry" />
        </mxCell>
        <mxCell id="xAPzOj5iwJdq9N1utbDK-151" value="ERROR" style="text;strokeColor=none;fillColor=none;align=left;verticalAlign=middle;spacingTop=-1;spacingLeft=4;spacingRight=4;rotatable=0;labelPosition=right;points=[];portConstraint=eastwest;" vertex="1" parent="1">
          <mxGeometry x="380" y="1020" width="20" height="14" as="geometry" />
        </mxCell>
        <mxCell id="xAPzOj5iwJdq9N1utbDK-152" value="NO MORE PROVIDERS" style="text;strokeColor=none;fillColor=none;align=left;verticalAlign=middle;spacingTop=-1;spacingLeft=4;spacingRight=4;rotatable=0;labelPosition=right;points=[];portConstraint=eastwest;" vertex="1" parent="1">
          <mxGeometry x="250" y="1070" width="20" height="14" as="geometry" />
        </mxCell>
        <mxCell id="xAPzOj5iwJdq9N1utbDK-154" value="PROVIDER FOUND" style="text;strokeColor=none;fillColor=none;align=left;verticalAlign=middle;spacingTop=-1;spacingLeft=4;spacingRight=4;rotatable=0;labelPosition=right;points=[];portConstraint=eastwest;" vertex="1" parent="1">
          <mxGeometry x="360" y="930" width="20" height="14" as="geometry" />
        </mxCell>
        <mxCell id="xAPzOj5iwJdq9N1utbDK-162" style="edgeStyle=orthogonalEdgeStyle;rounded=0;orthogonalLoop=1;jettySize=auto;html=1;exitX=1;exitY=0.5;exitDx=0;exitDy=0;entryX=0;entryY=0.5;entryDx=0;entryDy=0;" edge="1" parent="1" source="xAPzOj5iwJdq9N1utbDK-155" target="xAPzOj5iwJdq9N1utbDK-161">
          <mxGeometry relative="1" as="geometry" />
        </mxCell>
        <mxCell id="xAPzOj5iwJdq9N1utbDK-155" value="MARK CASCADE AS FAILED" style="rounded=1;whiteSpace=wrap;html=1;" vertex="1" parent="1">
          <mxGeometry x="400" y="1110" width="134" height="80" as="geometry" />
        </mxCell>
        <mxCell id="xAPzOj5iwJdq9N1utbDK-157" value="WAIT CALLBACK" style="rounded=1;whiteSpace=wrap;html=1;" vertex="1" parent="1">
          <mxGeometry x="534" y="1035" width="120" height="60" as="geometry" />
        </mxCell>
        <mxCell id="xAPzOj5iwJdq9N1utbDK-159" value="OK" style="text;strokeColor=none;fillColor=none;align=left;verticalAlign=middle;spacingTop=-1;spacingLeft=4;spacingRight=4;rotatable=0;labelPosition=right;points=[];portConstraint=eastwest;" vertex="1" parent="1">
          <mxGeometry x="600" y="990" width="20" height="14" as="geometry" />
        </mxCell>
        <mxCell id="xAPzOj5iwJdq9N1utbDK-160" value="OK" style="text;strokeColor=none;fillColor=none;align=left;verticalAlign=middle;spacingTop=-1;spacingLeft=4;spacingRight=4;rotatable=0;labelPosition=right;points=[];portConstraint=eastwest;" vertex="1" parent="1">
          <mxGeometry x="870" y="390" width="20" height="14" as="geometry" />
        </mxCell>
        <mxCell id="xAPzOj5iwJdq9N1utbDK-161" value="&lt;font style=&quot;font-size: 20px;&quot;&gt;Payment cycle finished&lt;/font&gt;" style="ellipse;whiteSpace=wrap;html=1;" vertex="1" parent="1">
          <mxGeometry x="710" y="1110" width="240" height="80" as="geometry" />
        </mxCell>
      </root>
    </mxGraphModel>
  </diagram>
</mxfile>
